<svg version="1.1" xmlns="http://www.w3.org/2000/svg" xmlns:xlink="http://www.w3.org/1999/xlink" width="8.53085" height="10.32455" viewBox="0,0,8.53085,10.32455"><g transform="translate(-235.73458,-174.83772)"><g data-paper-data="{&quot;isPaintingLayer&quot;:true}" fill="#231d25" fill-rule="nonzero" stroke="none" stroke-width="0.5" stroke-linecap="butt" stroke-linejoin="miter" stroke-miterlimit="10" stroke-dasharray="" stroke-dashoffset="0" style="mix-blend-mode: normal"><path d="M238.03217,183.59776l0.01305,0.00732l0.01492,0.00115l0.01135,0.00378l0.1651,0.00869h0.52008l0.01747,-0.00873l0.09892,-0.06595l0.10326,-0.09293l0.00495,-0.00263l0.03653,-0.04999l0.07254,-0.06045l0.0969,-0.08614l0.01912,-0.03187l0.02495,-0.02495l0.03472,-0.05456l0.0344,-0.08599l0.01711,-0.0237l0.01336,-0.02821l0.00489,-0.04274l0.02927,-0.07804l0.00182,-0.02372l-0.00027,-0.00799l0.00138,-0.00644l0.00079,-0.01025l0.00394,-0.01183l0.03338,-0.15579l0.01207,-0.02461l-0.00037,-0.00782l0.00293,-0.01466l0.0007,-0.00909l0.0028,-0.00839l0.00674,-0.03368l0.01593,-0.03363l0.00341,-0.03706l0.09215,-0.2633l0.01866,-0.02838l0.00737,-0.03316l0.09215,-0.18431l0.01052,-0.01228l-0.00029,-0.00235l0.01361,-0.01675l0.00901,-0.02522l0.02633,-0.03949l0.06597,-0.05998l0.05622,-0.0692l0.05266,-0.03949l0.01989,-0.00838l0.00607,-0.00552l0.00605,0.00042l0.0121,-0.0051l0.03634,-0.03115l0.04826,-0.02413l0.00293,-0.00514l0.01467,-0.00367l0.01312,-0.00656l0.11812,-0.02625l0.10454,-0.02613l0.00974,-0.00649l0.01476,0.00328h0.00302l0.01476,-0.00328l0.00974,0.00649l0.10454,0.02613l0.08792,0.01954l0.01635,-0.00256l0.01149,0.00875l0.00236,0.00053l0.01312,0.00656l0.01467,0.00367l0.0047,0.00822l0.07964,0.06827l0.08989,0.06849l0.02179,0.02724l0.00857,0.00734l0.0002,0.00362l0.0221,0.02762l0.01496,0.03264l0.02539,0.02539l0.03949,0.06582l0.00323,0.01061l0.00751,0.00816l0.07899,0.14481l0.00243,0.00934l0.00628,0.00732l0.01316,0.02633l0.00822,0.037l0.02035,0.03198l0.02144,0.06431l0.02058,0.05146l0.00137,0.01003l0.00562,0.00843l0.06034,0.16896l0.03022,0.07052l0.07595,0.16457l0.00369,0.01946l0.01125,0.01631l0.03322,0.08858l0.05843,0.12854l0.00508,0.02766l0.0151,0.02372l0.00263,0.0079l0.03686,0.05793l0.00464,0.01392l0.00778,0.01297l-0.00135,0.00494l0.00538,0.01346l0.03926,0.07068l0.01451,0.02176l0.02366,0.06624l0.00933,0.01466l0.01303,0.0152l0.00301,0.00602l0.04001,0.05145l0.00315,0.00315l0.00236,0.00393l0.01462,0.0188l0.00532,0.01205l0.02661,0.02162l0.00644,0.00859l0.15425,0.13497l0.01322,0.00991l0.18295,0.10762l0.22767,0.11383l0.04549,0.0182l0.01811,0.01308l0.02181,0.00485l0.30881,0.15441l0.03263,0.01088l0.0176,0.00503l0.26247,0.0075l0.03965,-0.01982l0.01708,-0.02562l0.00597,-0.01492l0.03082,-0.04267l0.05069,-0.15208l0.00392,-0.00617l0.00076,-0.00727l0.05266,-0.14481l0.00617,-0.00914l0.00231,-0.03008l0.0145,-0.04349l0.01114,-0.06128v-0.04467l0.01572,-0.06289v-0.02648l-0.00088,-0.00529l0.00088,-0.01101v-0.02205l0.00259,-0.01038l0.02218,-0.27721l0.01216,-0.25546v-0.15861l0.00919,-0.03677l-0.0039,-0.0377l0.00787,-0.05511v-0.82064l-0.03871,-0.94194l-0.05206,-0.71579l0.00335,-0.01925l-0.00474,-0.01895v-0.0572l-0.02171,-0.16283l0.00066,-0.00589l-0.00206,-0.00556l-0.02229,-0.20064l-0.16882,-0.66323l-0.0437,-0.12017l-0.00076,-0.00727l-0.00392,-0.00617l-0.04083,-0.12248l-0.07759,-0.15519l-0.37484,-0.60202l-0.74,-0.60092l-0.8697,-0.48455l-0.13948,-0.06974l-0.3071,-0.14075l-0.99772,-0.45351l-0.62496,-0.23749l-0.0952,-0.02856l-0.04334,-0.00963h-0.22156l-0.31527,0.07643l-0.05167,0.02583l-0.18675,0.12139l-0.44592,0.46768l-0.25927,0.49693l-0.0385,0.12512l-0.00325,0.00539l-0.00048,0.00627l-0.04511,0.13532l-0.04289,0.1823l-0.12428,0.77055l-0.0116,0.20873l-0.0124,0.23554l0,0.30741l0.15438,1.92979l0.17771,1.0282l0.11519,0.49915l-0.00008,0.0045l0.00198,0.00404l0.10514,0.49286l0.04107,0.04694l0.05343,0.05343l0.02699,0.04498l0.03881,0.03528l0.09721,0.14582l0.08726,0.11635l0.0129,0.0129l0.00099,0.00074l0.01908,0.01145l0.14525,0.06778l0.0364,0.01213zM236.54466,183.97482l-0.00777,-0.00248l-0.007,-0.0143c-0.05687,-0.06742 -0.09712,-0.14932 -0.11443,-0.23939l-0.0449,-0.21045l-0.13429,-0.22381l0.04856,-0.17804l-0.07699,-0.36088l-0.1175,-0.50917l0.00027,-0.015l-0.00606,-0.01372l-0.18431,-1.06636l0.00181,-0.02445l-0.00783,-0.02324l-0.15798,-1.97473l0.00353,-0.02117l-0.00521,-0.02082v-0.34229l0.00344,-0.01376l-0.00271,-0.01392l0.01316,-0.25013l0.00023,-0.00076l-0.00015,-0.00078l0.01316,-0.23697l0.00829,-0.02674l-0.00238,-0.0279l0.13165,-0.81622l0.00755,-0.01761l-0.00027,-0.01915l0.05266,-0.2238l0.01116,-0.02164l0.00187,-0.02427l0.05072,-0.15217l0.05086,-0.16529l0.02509,-0.04154l0.01134,-0.04718l0.31596,-0.60558l0.04917,-0.0554l0.03659,-0.06441l0.53976,-0.56609l0.05211,-0.03298l0.04201,-0.04515l0.2633,-0.17114l0.02856,-0.00983l0.02293,-0.01965l0.13165,-0.06582l0.05843,-0.01298l0.05301,-0.02779l0.43444,-0.10532l0.06297,0.00045l0.06109,-0.01527h0.34229l0.05626,0.01407l0.05797,-0.00153l0.11848,0.02633l0.01752,0.00876l0.01956,0.00091l0.13165,0.03949l0.01658,0.00986l0.01916,0.00227l0.65824,0.25013l0.01403,0.00977l0.01682,0.00309l1.0137,0.46077l0.00067,0.00053l0.00084,0.00016l0.31596,0.14481l0.00715,0.00572l0.00894,0.00199l0.15798,0.07899l0.00915,0.00785l0.01164,0.00314l0.92003,0.51259l0.03375,0.03165l0.04191,0.01958l0.84406,0.68541l0.05237,0.06978l0.0627,0.06067l0.43444,0.69774l0.00768,0.02383l0.01629,0.01901l0.10532,0.21064l0.00822,0.037l0.02035,0.03198l0.05041,0.15123l0.05023,0.13813l0.00277,0.02656l0.01267,0.0235l0.18431,0.72407l0.00016,0.03703l0.01289,0.03472l0.02569,0.23124l0.02557,0.19176l-0.00398,0.03522l0.0086,0.03438v0.07303l0.05127,0.705l-0.00146,0.0084l0.00241,0.00818l0.03949,0.96104l-0.00225,0.01086l0.00269,0.01076v0.86888l-0.00919,0.03677l0.0039,0.0377l-0.00787,0.05511v0.13372l-0.00311,0.01246l0.00252,0.01259l-0.01316,0.27646l-0.00251,0.00835l0.00143,0.0086l-0.02633,0.32912l-0.01149,0.03412v0.0687l-0.01161,0.04644l0.00312,0.04776l-0.02633,0.14481l-0.01562,0.03453l-0.00291,0.03779l-0.02633,0.07899l-0.01136,0.01785l-0.00275,0.01239l-0.00374,0.03586l-0.05023,0.13813l-0.05271,0.15813l0.00156,0.00571l-0.00778,0.01297l-0.00464,0.01392l-0.0399,0.0627l-0.0234,0.05851l-0.03225,0.04466l-0.01853,0.05187l-0.10532,0.15798l-0.0765,0.06955l-0.0193,0.02123l-0.00948,0.0158l-0.02633,0.02633l-0.00548,0.00329l-0.00895,0.00985l-0.03949,0.02633l-0.00671,0.0024l-0.00857,0.00779l-0.00972,-0.00067l-0.05794,0.04966l-0.21861,0.1093l-0.00383,0.00628l-0.13977,0.03073l-0.1397,0.03104l-0.00612,-0.00408l-0.44025,-0.01258l-0.0636,-0.01785l-0.06602,-0.0022l-0.09215,-0.02633l-0.01016,-0.00586l-0.0117,-0.0009l-0.07899,-0.02633l-0.03198,-0.02035l-0.037,-0.00822l-0.3227,-0.16135l-0.04549,-0.0182l-0.01811,-0.01308l-0.02181,-0.00485l-0.2633,-0.13165l-0.01392,-0.01193l-0.01758,-0.00518l-0.2238,-0.13165l-0.02136,-0.02099l-0.0276,-0.01162l-0.05266,-0.03949l-0.01278,-0.01573l-0.01803,-0.00925l-0.21064,-0.18431l-0.03156,-0.04545l-0.04295,-0.03489l-0.03949,-0.05266l-0.00173,-0.0041l-0.019,-0.01489l-0.09215,-0.11848l-0.0212,-0.04797l-0.03413,-0.03982l-0.02633,-0.05266l-0.00414,-0.01862l-0.00251,-0.00376l-0.00732,-0.02048l-0.01486,-0.01588l-0.06582,-0.11848l-0.00878,-0.03271l-0.01983,-0.02745l-0.02633,-0.06582l-0.00214,-0.01569l-0.0085,-0.01336l-0.00263,-0.0079l-0.02708,-0.04255l-0.00277,-0.00349l-0.00138,-0.00304l-0.00563,-0.00885l-0.00442,-0.01327l-0.00054,-0.00118l-0.00746,-0.01243l0.00068,-0.00249l-0.04707,-0.10355l-0.00063,-0.00342l-0.03478,0.07341l-0.00745,0.02085l-0.00252,0.01847l-0.05266,0.13165l-0.029,0.04015l-0.01566,0.04699l-0.09215,0.14481l-0.04207,0.03991l-0.02984,0.04973l-0.06582,0.06582l-0.01249,0.00749l-0.03635,0.05322l-0.11848,0.10532l-0.00764,0.004l-0.00509,0.00696l-0.06394,0.05329l-0.02622,0.03891l-0.13165,0.11848l-0.03416,0.01813l-0.02601,0.02861l-0.15798,0.10532l-0.03134,0.01119l-0.02526,0.02166l-0.10532,0.05266l-0.06328,0.01406l-0.05798,0.02899l-0.11848,0.02633l-0.05797,-0.00153l-0.05626,0.01407h-0.59242l-0.01376,-0.00344l-0.01392,0.00271l-0.25013,-0.01316l-0.06797,-0.02084l-0.07088,-0.00545l-0.06512,-0.02171l-0.13071,-0.03565l-0.01305,-0.00732l-0.01492,-0.00115l-0.07899,-0.02633l-0.02596,-0.01652l-0.03021,-0.00586l-0.19747,-0.09215l-0.02161,-0.01754l-0.02663,-0.0081l-0.06582,-0.03949l-0.01955,-0.01955l-0.02548,-0.01073l-0.05266,-0.03949l-0.0239,-0.02942l-0.0325,-0.0195l-0.06582,-0.06582l-0.01876,-0.03126c-0.13916,-0.00931 -0.26352,-0.07268 -0.35226,-0.16929z"/><path d="M238.09109,177.97097c0,-0.19327 0.10412,-0.36223 0.25933,-0.45383l0.00397,-0.00694l0.01508,-0.00377c0.06862,-0.03674 0.14633,-0.05873 0.22888,-0.06171l0.03809,-0.00635l0.02282,0.00183l0.01705,-0.00131l0.02242,-0.01062l0.13165,-0.02633l0.05239,0.00249l0.05088,-0.01272h0.46077l0.08212,0.02053l0.0844,0.00649l0.02031,0.00677l0.03304,0.00826l0.00795,0.00424l0.009,0.0003l0.16382,0.0468l0.04492,0.00898l0.05499,0.02605l0.00834,0.00209l0.03885,-0.0106l0.05802,0.03481l0.06564,0.01641l0.01028,0.018l0.10176,0.03914l0.02815,0.00938l0.01885,0.012l0.02206,0.00356l0.09215,0.03949l0.01261,0.00958l0.01546,0.00344l0.17717,0.08858l0.00399,0.00133l0.00488,0.0031l0.0246,0.0123l0.0152,0.01303l0.00425,0.0027l0.05548,0.01689l0.04848,0.02909l0.0011,0.00055l0.00399,0.00133l0.00488,0.0031l0.0246,0.0123l0.00691,0.00592l0.03258,0.00724l0.05266,0.02633l0.01795,0.01539l0.02254,0.00714l0.16355,0.10065l0.03236,0.0091l0.09215,0.05266l0.04599,0.04407l0.02106,0.00806l0.13165,0.09215l0.02572,0.02962l0.07099,0.04259l0.02633,0.02633l0.00922,0.01537l0.01472,0.01022l0.09215,0.10532l0.01596,0.03113l0.02589,0.02353l0.02633,0.03949l0.01119,0.03134l0.02166,0.02526l0.01167,0.02334l0.00814,0.01222l0.00509,0.01425l0.00143,0.00286l0.00067,0.00302l0.0092,0.02575l0.02948,0.03879l0.07289,0.17008l0.01941,0.03882l0.01258,0.05661l0.02729,0.05117l0.00826,0.03304l0.00677,0.02031l0.00417,0.05418l0.01925,0.05082l0.02633,0.2238l-0.004,0.0311l0.00761,0.03042v0.17628l0.00328,0.00492l-0.00328,0.01476v0.01467l-0.02935,0.11738l-0.02625,0.11812l-0.00656,0.01312l-0.00367,0.01467l-0.00822,0.0047l-0.00446,0.0052l-0.00405,0.0144l-0.05266,0.09215l-0.01466,0.0153l-0.00099,0.01781l-0.08409,0.07208l-0.01144,0.01907l-0.02633,0.02633l-0.016,0.0096l-0.03427,0.03576h-0.01784l-0.01609,0.01379l-0.0158,0.0079l-0.03686,0.0316l-0.02633,0.01316l-0.03678,0.00817l-0.00252,0.00151l-0.02967,0.01888l-0.03949,0.01316l-0.02059,0.00158l-0.01822,0.00972l-0.15798,0.03949h-0.02146l-0.01968,0.00856l-0.03823,0.00637l-0.03979,0.01326l-0.04772,0.00367l-0.04433,0.01806l-0.18431,0.02633l-0.0377,-0.0039l-0.03677,0.00919h-0.44761l-0.06289,-0.01572h-0.06483l-0.03007,-0.00752l-0.22713,-0.03586l-0.05463,-0.0232l-0.05881,-0.00802l-0.00721,-0.00289l-0.02966,-0.00424l-0.0256,-0.01043h-0.02764l-0.2633,-0.06582l-0.01822,-0.00972l-0.02059,-0.00158l-0.02031,-0.00677l-0.03304,-0.00826l-0.01822,-0.00972l-0.02059,-0.00158l-0.03949,-0.01316l-0.01415,-0.009l-0.12903,-0.03519l-0.04574,-0.02566l-0.0512,-0.01138l-0.13165,-0.06582l-0.00622,-0.00533l-0.00794,-0.00202l-0.16412,-0.08837l-0.0192,-0.0096l-0.03686,-0.0316l-0.0158,-0.0079l-0.03355,-0.02876l-0.05065,-0.03039l-0.01975,-0.01975l-0.03291,-0.01975l-0.10532,-0.10532l-0.0195,-0.0325l-0.02942,-0.0239l-0.02855,-0.03807l-0.05756,-0.04934l-0.00146,-0.02623l-0.02798,-0.03264l-0.01316,-0.02633l-0.00344,-0.01546l-0.00958,-0.01261l-0.03241,-0.07562l-0.02334,-0.01333l-0.01641,-0.06564l-0.03481,-0.05802l0.00498,-0.01826l-0.02555,-0.06813l-0.00114,-0.00994l-0.00537,-0.00844l-0.01316,-0.03949l-0.00263,-0.03423l-0.0237,-0.07109l-0.00263,-0.03423l-0.0237,-0.07109l-0.00649,-0.0844l-0.01482,-0.05929l-0.00042,-0.00102l-0.00021,-0.0015l-0.00508,-0.02031v-0.01524l-0.00787,-0.05511l0.0039,-0.0377l-0.00919,-0.03677v-0.05266l0.01067,-0.0427l-0.00351,-0.04387l0.01316,-0.07899l0.01346,-0.03097l-0.00603,-0.0221l0.04728,-0.07879l0.00464,-0.01392l0.01272,-0.01998l0.03615,-0.08313l0.02148,-0.00794l0.00282,-0.00471l0.00198,-0.00792c-0.03177,-0.06777 -0.04951,-0.14342 -0.04951,-0.22322zM239.08785,178.90104l0.03413,0.09101l0.00621,0.00724l0.01316,0.02633l0.00344,0.01546l0.00958,0.01261l0.00653,0.01523l0.00972,0.0079l0.0088,0.01174l0.01148,0.00984l0.00026,0.00464l0.04264,0.04264l0.15312,0.08245l0.07788,0.03894l0.09451,0.02577l0.03606,0.02023l0.01824,0.0014l0.02031,0.00677l0.03304,0.00826l0.01822,0.00972l0.02059,0.00158l0.02031,0.00677l0.21732,0.05433l0.06526,0.00932l0.05851,0.02384l0.0626,0.00854l0.01086,0.00434l0.19166,0.03026l0.01583,0.00672h0.36489l0.10025,-0.01432l0.03394,-0.01131l0.04165,-0.0032l0.00898,-0.0039l-0.00745,-0.06331l-0.00537,-0.01073l-0.00191,-0.00861l-0.00181,-0.00722l-0.0093,-0.01223l-0.07547,-0.1761l-0.01683,-0.01963l-0.00709,-0.01418l-0.02694,-0.03079l-0.12607,-0.08825l-0.01507,-0.01735l-0.06269,-0.03583l-0.00737,-0.00706l-0.04685,-0.01483l-0.15048,-0.0926l-0.00336,-0.00112l-0.00488,-0.0031l-0.0246,-0.0123l-0.00691,-0.00592l-0.03258,-0.00724l-0.05266,-0.02633l-0.01568,-0.01344l-0.01975,-0.00601l-0.0468,-0.02808l-0.02309,-0.00513l-0.1968,-0.0984l-0.0578,-0.02477l-0.01872,-0.00624l-0.01034,-0.00658l-0.01217,-0.00149l-0.11946,-0.04595l-0.00228,0.00062l-0.00695,-0.00417l-0.04245,-0.01633l-0.02657,-0.01866l-0.04564,-0.00913l-0.01966,-0.00931l-0.02174,-0.00072l-0.17587,-0.05025l-0.03392,-0.00848l-0.14928,0l-0.06401,0.15202l0.00021,0.00078l-0.00181,0.00302l-0.00688,0.01634l-0.0162,0.06481l-0.01549,0.00885l-0.00713,0.01995l-0.00926,0.0139l0.00486,0.01458l0.00263,0.03423l0.0237,0.07109l0.00263,0.03423z"/></g></g></svg>