<svg version="1.1" xmlns="http://www.w3.org/2000/svg" xmlns:xlink="http://www.w3.org/1999/xlink" width="338.49823" height="390.79415" viewBox="0,0,338.49823,390.79415"><g transform="translate(-70.75089,-0.00001)"><g data-paper-data="{&quot;isPaintingLayer&quot;:true}" fill-rule="nonzero" stroke-linejoin="miter" stroke-miterlimit="10" stroke-dasharray="" stroke-dashoffset="0" style="mix-blend-mode: normal"><path d="M70.75089,360.00001v-360h338.49823v360z" fill="#161629" stroke="none" stroke-width="0" stroke-linecap="butt"/><text transform="translate(94.21842,328.26481) scale(1.44529,1.44529)" font-size="40" xml:space="preserve" fill="#ffffff" fill-rule="nonzero" stroke="none" stroke-width="1" stroke-linecap="butt" stroke-linejoin="miter" stroke-miterlimit="10" stroke-dasharray="" stroke-dashoffset="0" font-family="&quot;ヒラギノ角ゴ Pro W3&quot;, &quot;Hiragino Kaku Gothic Pro&quot;, Osaka, &quot;メイリオ&quot;, Meiryo, &quot;ＭＳ Ｐゴシック&quot;, &quot;MS PGothic&quot;" font-weight="normal" text-anchor="start" style="mix-blend-mode: normal"><tspan x="0" dy="0">Catch Mode</tspan></text><path d="M142.05861,203.02872c0,-13.33134 10.80719,-24.13854 24.13853,-24.13854c13.33135,0 24.13854,10.8072 24.13854,24.13854c0,13.33135 -10.8072,24.13854 -24.13854,24.13854c-13.33134,0 -24.13853,-10.80719 -24.13853,-24.13854z" fill="#ff0000" stroke="none" stroke-width="0" stroke-linecap="butt"/><path d="M170.09076,46.28838l13.09804,-19.94474l188.31546,123.66985l-13.09803,19.94474z" fill="#ffffff" stroke="none" stroke-width="0" stroke-linecap="butt"/><path d="M195.88474,180.00001l59.37526,-52.71634" fill="none" stroke="#ffffff" stroke-width="4.5" stroke-linecap="round"/><path d="M225.5724,131.16803v-7.76872h33.01708v7.76872z" fill="#ffffff" stroke="none" stroke-width="0" stroke-linecap="butt"/><path d="M251.37568,156.13893v-32.73963h7.76872v32.73963z" fill="#ffffff" stroke="none" stroke-width="0" stroke-linecap="butt"/><text transform="translate(136.62875,383.3045) scale(0.55479,0.55479)" font-size="40" xml:space="preserve" fill="#ffffff" fill-rule="nonzero" stroke="none" stroke-width="1" stroke-linecap="butt" stroke-linejoin="miter" stroke-miterlimit="10" stroke-dasharray="" stroke-dashoffset="0" font-family="&quot;ヒラギノ角ゴ Pro W3&quot;, &quot;Hiragino Kaku Gothic Pro&quot;, Osaka, &quot;メイリオ&quot;, Meiryo, &quot;ＭＳ Ｐゴシック&quot;, &quot;MS PGothic&quot;" font-weight="normal" text-anchor="start" style="mix-blend-mode: normal"><tspan x="0" dy="0">Best Played on Mobile</tspan></text></g></g></svg>