<svg version="1.1" xmlns="http://www.w3.org/2000/svg" xmlns:xlink="http://www.w3.org/1999/xlink" width="11.30819" height="13.38922" viewBox="0,0,11.30819,13.38922"><g transform="translate(-234.34591,-173.30539)"><g data-paper-data="{&quot;isPaintingLayer&quot;:true}" fill="#231d25" fill-rule="nonzero" stroke="none" stroke-width="0.5" stroke-linecap="butt" stroke-linejoin="miter" stroke-miterlimit="10" stroke-dasharray="" stroke-dashoffset="0" style="mix-blend-mode: normal"><path d="M241.07637,181.9039c0.05182,-0.30068 -0.14998,-1.48613 -0.61065,-1.53325c-0.30181,-0.03087 -0.79256,0.13204 -1.00636,-0.08176c-0.88242,-0.88242 0.78468,-1.17016 1.38082,-0.87209c1.16307,0.58153 1.82546,2.68876 0.70226,3.65151c-0.1047,0.08974 -0.67674,0.3971 -1.17259,0.53935c0.11012,0.88065 0.21341,1.97559 1.09205,2.05007c0.37456,0.03175 0.86632,0.15325 1.02719,-0.25658c0.27905,-0.7109 0.00496,-1.60243 0.23154,-2.34154c0.09377,-0.30588 0.77135,-0.31563 0.98434,-0.48408c0.5418,-0.42852 1.00303,-0.98362 0.96879,-1.74078c-0.02862,-0.63268 -1.06097,-1.06938 -1.57442,-1.00617c-0.04336,0.00534 -0.76292,0.12633 -0.84584,-0.01877l-0.25053,-0.43842c0.14082,-0.24643 0.35397,-0.40814 0.60765,-0.49911c1.01676,-0.36461 2.68448,0.40728 2.9542,1.41622c0.25036,0.93656 -0.03036,2.0765 -0.7857,2.73112c-0.12672,0.10982 -1.10432,0.65638 -1.10463,0.66102c-0.11058,1.66279 -0.13449,3.06226 -2.12573,3.0127c-1.25333,-0.0312 -2.21784,-1.49608 -2.18023,-2.66764c0.01312,-0.40869 -0.22825,-1.52931 0.50872,-1.52931c0.10807,0 0.18965,0.05169 0.25311,0.14185c0.42501,-0.15269 0.86933,-0.28938 0.94602,-0.73433z"/><path d="M240.31329,183.09594c0.02135,0.38423 -0.5128,0.56746 -0.90236,0.50027c-0.1148,0.21576 -0.24891,0.41509 -0.32584,0.54988c-0.867,1.51902 -2.2677,2.43469 -3.46657,0.52689c-0.71661,-1.14036 -0.37088,-2.48488 -0.3561,-3.76539c0.02836,-2.45744 0.738,-5.77386 3.06101,-7.07844c3.4575,-1.9417 6.6485,1.89677 5.80527,5.2697v0.0545c0,0.23894 -0.16473,0.43941 -0.38682,0.49402c-0.18516,0.08995 -0.40019,0.05695 -0.56704,-0.23966c-0.19235,-0.34194 -0.02186,-1.36541 -0.02725,-1.63518c-0.03539,-1.76931 -1.14745,-3.78333 -3.25218,-3.34302c-0.44127,0.09231 -0.96483,0.1542 -1.3358,0.44633c-1.98902,1.56634 -2.22873,4.43162 -2.31609,6.76661c-0.0452,1.20816 -0.23378,2.06481 0.62254,2.93851c0.94669,0.9659 1.40773,-1.89792 2.22257,-2.08656c0.06793,-0.03363 0.14445,-0.05253 0.22539,-0.05253c0.07885,0 0.15351,0.01794 0.22013,0.04996c0.37613,-0.06334 0.75009,0.08104 0.77914,0.60411z"/><path d="M236.38887,178.13591c-0.13956,0.24423 -0.3801,0.43788 -0.6389,0.49191c-0.23328,0.04871 -0.4814,-0.01602 -0.68376,-0.25937c-1.53763,-1.84912 -0.4936,-4.24745 1.9949,-3.97528c0.54544,0.05966 0.62096,0.58725 0.25436,0.95385c-0.25832,0.25832 -1.40536,0.15471 -1.81174,0.37826c-0.50384,0.27716 0.0258,1.48541 0.2246,1.80521c0.08914,0.1434 0.34404,0.05154 0.41001,0.16699z"/><path d="M238.76896,178.09957c0,-0.00571 0.00009,-0.01139 0.00028,-0.01705l-0.00971,-0.03885l-0.0008,-0.00126l-0.01817,-0.0545l-0.00223,-0.02905l-0.0057,-0.02281v-0.03634l-0.01817,-0.07267v-1.1841l-0.00317,-0.00475l0.00317,-0.01426v-0.01418l0.01817,-0.07267v-0.03634l0.01519,-0.06076v-0.06263l0.01817,-0.07268l0.00382,-0.00717l0.04458,-0.17832l0.07267,-0.04152l0.00231,-0.00433l0.01038,-0.00292l0.03603,-0.02059l0.06937,-0.1214l0.25436,-0.06359h0.00314l0.00475,-0.00317l0.01426,0.00317h0.01418l0.07268,0.01817h0.27666l0.04145,-0.00829l0.05061,0.00241l0.04916,-0.01229h1.23547l0.04125,0.01031l0.04238,-0.00339l0.10901,0.01817l0.01901,0.00827h0.02073l0.07268,0.01817l0.00717,0.00382l0.00329,0.00082l0.08154,0.00627l0.09048,0.03016l0.05372,0.01343l0.0176,0.00939l0.01989,0.00153l0.05451,0.01817l0.08467,0.05388l0.03884,0.00216l0.04254,0.04963l0.00725,0.00461l0.00471,0.00026l0.00517,0.00603l0.03802,0.02419l0.00526,0.0263l0.01719,0.02005l0.07657,0.06563l0.00141,0.02534l0.02703,0.03154l0.00332,0.00665l0.00496,0.00283l0.00355,0.01418l0.00634,0.01268l0.02536,0.11411l0.00934,0.03736l0.00382,0.00717l0.01817,0.07267v0.02379l0.00019,0.00086l-0.00019,0.00028v0.01703l0.00725,0.0114l0.01817,0.05451l0.00627,0.08154l0.01983,0.07934v0.70858l-0.01817,0.07267v0.27567l0.00317,0.00476l-0.00317,0.01426v0.01418l-0.02835,0.1134l-0.02535,0.11411l-0.00634,0.01268l-0.00354,0.01418l-0.00496,0.00283l-0.00332,0.00665l-0.17063,0.19907l-0.02006,0.00111l-0.00997,0.01744l-0.15956,0.03989l-0.02477,0.01576l-0.05451,0.01817l-0.01989,0.00153l-0.0176,0.00939l-0.07267,0.01817h-0.05451l-0.07267,0.01817h-0.06263l-0.06076,0.01519h-0.06691l-0.05939,0.0099l-0.0828,0.01656l-0.05061,-0.00241l-0.04916,0.01229h-0.06691l-0.06748,0.01125l-0.04238,-0.00339l-0.04125,0.01031h-0.09103l-0.09139,0.01305l-0.03642,-0.00377l-0.03552,0.00888h-1.11143l-0.00476,0.00317l-0.01426,-0.00317h-0.01417l-0.0801,-0.02002c-0.04827,-0.00411 -0.09462,-0.01497 -0.1381,-0.03161l-0.00931,-0.00207l-0.01268,-0.00634l-0.01417,-0.00354l-0.00278,-0.00487c-0.0778,-0.03754 -0.14459,-0.0943 -0.19419,-0.16412l-0.01158,-0.00993l-0.00043,-0.00775c-0.05169,-0.07963 -0.08172,-0.17462 -0.08172,-0.27663zM240.42249,177.60902l0.09139,-0.01306l0.03642,0.00377l0.03552,-0.00888h0.08508l0.06748,-0.01125l0.04238,0.00339l0.04125,-0.01031h0.05864l0.04145,-0.00829l0.00841,0.0004l0.00772,-0.00336l0.10901,-0.01817l0.04238,0.00339l0.02187,-0.00547l0.00121,-0.00484v-0.63191l-0.00022,-0.00101h-0.03231l-0.05297,-0.01324l-0.04744,-0.00791h-1.14299l-0.04145,0.00829l-0.05061,-0.00241l-0.01282,0.0032v0.71766z"/></g></g></svg>