<svg version="1.1" xmlns="http://www.w3.org/2000/svg" xmlns:xlink="http://www.w3.org/1999/xlink" width="8.64824" height="10.4667" viewBox="0,0,8.64824,10.4667"><g transform="translate(-235.67588,-174.76665)"><g data-paper-data="{&quot;isPaintingLayer&quot;:true}" fill="#231d25" fill-rule="nonzero" stroke="#231d25" stroke-width="0" stroke-linecap="butt" stroke-linejoin="miter" stroke-miterlimit="10" stroke-dasharray="" stroke-dashoffset="0" style="mix-blend-mode: normal"><path d="M238.00512,183.64722l0.01323,0.00742l0.01512,0.00117l0.0115,0.00383l0.16737,0.00881h0.52724l0.01771,-0.00885l0.10028,-0.06686l0.10468,-0.09421l0.00502,-0.00267l0.03703,-0.05068l0.07353,-0.06128l0.09823,-0.08732l0.01938,-0.0323l0.02529,-0.02529l0.0352,-0.05531l0.03487,-0.08717l0.01735,-0.02402l0.01354,-0.02859l0.00496,-0.04333l0.02967,-0.07911l0.00184,-0.02404l-0.00027,-0.0081l0.0014,-0.00653l0.0008,-0.01039l0.00399,-0.01199l0.03384,-0.15794l0.01224,-0.02495l-0.00037,-0.00793l0.00297,-0.01486l0.00071,-0.00922l0.00284,-0.0085l0.00684,-0.03415l0.01615,-0.03409l0.00345,-0.03757l0.09342,-0.26693l0.01892,-0.02877l0.00747,-0.03361l0.09342,-0.18685l0.01066,-0.01245l-0.00029,-0.00238l0.0138,-0.01698l0.00913,-0.02557l0.02669,-0.04004l0.06688,-0.06081l0.05699,-0.07015l0.05339,-0.04004l0.02016,-0.00849l0.00615,-0.0056l0.00614,0.00043l0.01226,-0.00517l0.03684,-0.03158l0.04893,-0.02446l0.00297,-0.00521l0.01487,-0.00372l0.0133,-0.00665l0.11974,-0.02661l0.10598,-0.02649l0.00987,-0.00658l0.01497,0.00332h0.00306l0.01497,-0.00332l0.00987,0.00658l0.10598,0.02649l0.08913,0.01981l0.01658,-0.00259l0.01164,0.00887l0.00239,0.00054l0.0133,0.00665l0.01487,0.00372l0.00476,0.00833l0.08073,0.06921l0.09113,0.06943l0.02209,0.02761l0.00869,0.00744l0.0002,0.00367l0.0224,0.028l0.01517,0.03309l0.02574,0.02574l0.04004,0.06673l0.00328,0.01076l0.00762,0.00827l0.08008,0.1468l0.00246,0.00947l0.00637,0.00742l0.01335,0.02669l0.00833,0.03751l0.02063,0.03242l0.02173,0.06519l0.02086,0.05217l0.00139,0.01017l0.00569,0.00855l0.06117,0.17129l0.03064,0.07149l0.077,0.16683l0.00374,0.01973l0.01141,0.01653l0.03368,0.0898l0.05923,0.13031l0.00515,0.02804l0.01531,0.02404l0.00267,0.00801l0.03737,0.05873l0.0047,0.01412l0.00789,0.01315l-0.00137,0.00501l0.00545,0.01365l0.0398,0.07165l0.01471,0.02206l0.02399,0.06715l0.00946,0.01486l0.01321,0.01541l0.00306,0.0061l0.04056,0.05216l0.0032,0.0032l0.00239,0.00398l0.01482,0.01906l0.00539,0.01221l0.02697,0.02192l0.00653,0.0087l0.15638,0.13682l0.0134,0.01005l0.18547,0.1091l0.23081,0.11539l0.04612,0.01845l0.01836,0.01326l0.02211,0.00491l0.31306,0.15654l0.03307,0.01103l0.01784,0.0051l0.26609,0.00761l0.04019,-0.02009l0.01731,-0.02597l0.00605,-0.01512l0.03124,-0.04326l0.05139,-0.15417l0.00398,-0.00625l0.00077,-0.00737l0.05339,-0.1468l0.00625,-0.00926l0.00234,-0.0305l0.0147,-0.04409l0.01129,-0.06212v-0.04529l0.01594,-0.06376v-0.02684l-0.00089,-0.00537l0.00089,-0.01116v-0.02235l0.00263,-0.01052l0.02248,-0.28102l0.01233,-0.25897v-0.1608l0.00932,-0.03727l-0.00395,-0.03822l0.00798,-0.05587v-0.83193l-0.03925,-0.95491l-0.05278,-0.72564l0.0034,-0.01952l-0.00481,-0.01921v-0.05798l-0.02201,-0.16507l0.00067,-0.00597l-0.00209,-0.00564l-0.0226,-0.2034l-0.17115,-0.67236l-0.0443,-0.12182l-0.00077,-0.00737l-0.00398,-0.00625l-0.04139,-0.12417l-0.07866,-0.15732l-0.38,-0.6103l-0.75018,-0.60919l-0.88167,-0.49121l-0.1414,-0.0707l-0.31133,-0.14269l-1.01145,-0.45975l-0.63356,-0.24076l-0.09651,-0.02896l-0.04394,-0.00976h-0.22461l-0.31961,0.07748l-0.05238,0.02619l-0.18932,0.12306l-0.45206,0.47412l-0.26284,0.50377l-0.03903,0.12684l-0.00329,0.00546l-0.00049,0.00636l-0.04573,0.13718l-0.04348,0.18481l-0.12599,0.78116l-0.01176,0.2116l-0.01257,0.23878v0.31164l0.1565,1.95635l0.18015,1.04235l0.11678,0.50602l-0.00008,0.00456l0.00201,0.0041l0.10658,0.49965l0.04164,0.04759l0.05417,0.05417l0.02736,0.0456l0.03934,0.03577l0.09855,0.14783l0.08846,0.11795l0.01308,0.01308l0.001,0.00075l0.01934,0.01161l0.14725,0.06871l0.0369,0.0123zM236.49713,184.02947l-0.00788,-0.00251l-0.00709,-0.0145c-0.05765,-0.06835 -0.09845,-0.15137 -0.11601,-0.24268l-0.04552,-0.21334l-0.13614,-0.22689l0.04923,-0.18049l-0.07805,-0.36585l-0.11911,-0.51618l0.00027,-0.0152l-0.00615,-0.01391l-0.18685,-1.08103l0.00183,-0.02479l-0.00793,-0.02356l-0.16016,-2.00191l0.00358,-0.02147l-0.00528,-0.0211v-0.347l0.00349,-0.01395l-0.00275,-0.01412l0.01335,-0.25357l0.00023,-0.00077l-0.00015,-0.00079l0.01335,-0.24023l0.0084,-0.02711l-0.00241,-0.02828l0.13346,-0.82745l0.00765,-0.01785l-0.00027,-0.01941l0.05339,-0.22688l0.01132,-0.02193l0.0019,-0.0246l0.05141,-0.15426l0.05156,-0.16756l0.02543,-0.04212l0.01149,-0.04783l0.32031,-0.61391l0.04985,-0.05616l0.0371,-0.0653l0.54719,-0.57388l0.05283,-0.03344l0.04259,-0.04577l0.26693,-0.17349l0.02896,-0.00996l0.02325,-0.01992l0.13346,-0.06673l0.05923,-0.01316l0.05374,-0.02817l0.44042,-0.10677l0.06384,0.00046l0.06193,-0.01548h0.347l0.05704,0.01427l0.05876,-0.00155l0.12011,0.02669l0.01776,0.00888l0.01983,0.00092l0.13346,0.04004l0.01681,0.01l0.01942,0.0023l0.6673,0.25357l0.01422,0.0099l0.01706,0.00313l1.02765,0.46711l0.00068,0.00054l0.00085,0.00016l0.32031,0.1468l0.00725,0.0058l0.00906,0.00202l0.16016,0.08008l0.00927,0.00796l0.0118,0.00318l0.93269,0.51964l0.03422,0.03208l0.04249,0.01985l0.85567,0.69484l0.05309,0.07074l0.06356,0.06151l0.44042,0.70735l0.00778,0.02416l0.01652,0.01927l0.10677,0.21354l0.00833,0.03751l0.02063,0.03242l0.0511,0.15331l0.05092,0.14003l0.00281,0.02693l0.01284,0.02382l0.18685,0.73404l0.00016,0.03754l0.01307,0.0352l0.02604,0.23442l0.02592,0.1944l-0.00404,0.0357l0.00872,0.03485v0.07404l0.05197,0.71471l-0.00148,0.00852l0.00244,0.00829l0.04004,0.97427l-0.00228,0.01101l0.00273,0.01091v0.88084l-0.00932,0.03727l0.00395,0.03822l-0.00798,0.05587v0.13556l-0.00315,0.01263l0.00255,0.01276l-0.01335,0.28026l-0.00254,0.00847l0.00145,0.00872l-0.02669,0.33365l-0.01164,0.03459v0.06965l-0.01177,0.04708l0.00316,0.04842l-0.02669,0.1468l-0.01583,0.03501l-0.00295,0.03831l-0.02669,0.08008l-0.01151,0.01809l-0.00279,0.01256l-0.00379,0.03635l-0.05092,0.14003l-0.05343,0.16031l0.00159,0.00579l-0.00789,0.01315l-0.0047,0.01412l-0.04045,0.06356l-0.02372,0.05931l-0.03269,0.04528l-0.01878,0.05258l-0.10677,0.16016l-0.07756,0.07051l-0.01956,0.02152l-0.00961,0.01602l-0.02669,0.02669l-0.00555,0.00334l-0.00908,0.00999l-0.04004,0.02669l-0.0068,0.00244l-0.00869,0.0079l-0.00986,-0.00068l-0.05874,0.05034l-0.22162,0.11081l-0.00388,0.00637l-0.14169,0.03115l-0.14162,0.03146l-0.00621,-0.00414l-0.44631,-0.01275l-0.06448,-0.01809l-0.06693,-0.00223l-0.09342,-0.02669l-0.0103,-0.00594l-0.01186,-0.00091l-0.08008,-0.02669l-0.03242,-0.02063l-0.03751,-0.00833l-0.32714,-0.16357l-0.04612,-0.01845l-0.01836,-0.01326l-0.02211,-0.00491l-0.26693,-0.13346l-0.01412,-0.0121l-0.01783,-0.00525l-0.22688,-0.13346l-0.02165,-0.02128l-0.02798,-0.01178l-0.05339,-0.04004l-0.01296,-0.01595l-0.01828,-0.00938l-0.21354,-0.18685l-0.03199,-0.04607l-0.04354,-0.03537l-0.04004,-0.05339l-0.00175,-0.00415l-0.01926,-0.0151l-0.09342,-0.12011l-0.02149,-0.04863l-0.0346,-0.04037l-0.02669,-0.05339l-0.0042,-0.01888l-0.00254,-0.00381l-0.00742,-0.02077l-0.01506,-0.0161l-0.06673,-0.12011l-0.0089,-0.03316l-0.0201,-0.02782l-0.02669,-0.06673l-0.00217,-0.0159l-0.00862,-0.01354l-0.00267,-0.00801l-0.02745,-0.04313l-0.00281,-0.00354l-0.0014,-0.00308l-0.00571,-0.00897l-0.00448,-0.01345l-0.00055,-0.0012l-0.00756,-0.0126l0.00069,-0.00252l-0.04772,-0.10497l-0.00064,-0.00347l-0.03526,0.07442l-0.00755,0.02114l-0.00255,0.01872l-0.05339,0.13346l-0.0294,0.0407l-0.01588,0.04763l-0.09342,0.1468l-0.04265,0.04046l-0.03025,0.05041l-0.06673,0.06673l-0.01266,0.00759l-0.03685,0.05396l-0.12011,0.10677l-0.00775,0.00406l-0.00516,0.00706l-0.06482,0.05403l-0.02658,0.03944l-0.13346,0.12011l-0.03463,0.01838l-0.02637,0.029l-0.16016,0.10677l-0.03177,0.01134l-0.02561,0.02196l-0.10677,0.05339l-0.06415,0.01426l-0.05878,0.02939l-0.12011,0.02669l-0.05876,-0.00155l-0.05704,0.01427h-0.60057l-0.01395,-0.00349l-0.01412,0.00275l-0.25357,-0.01335l-0.0689,-0.02113l-0.07185,-0.00553l-0.06602,-0.02201l-0.13251,-0.03614l-0.01323,-0.00742l-0.01512,-0.00117l-0.08008,-0.02669l-0.02632,-0.01675l-0.03062,-0.00594l-0.20018,-0.09342l-0.02191,-0.01778l-0.027,-0.00821l-0.06673,-0.04004l-0.01982,-0.01982l-0.02583,-0.01087l-0.05339,-0.04004l-0.02423,-0.02982l-0.03295,-0.01977l-0.06673,-0.06673l-0.01902,-0.03169c-0.14107,-0.00944 -0.26715,-0.07368 -0.35711,-0.17162z"/><path d="M238.06485,177.94298c0,-0.19593 0.10556,-0.36721 0.2629,-0.46008l0.00402,-0.00703l0.01528,-0.00383c0.06957,-0.03725 0.14834,-0.05953 0.23203,-0.06256l0.03862,-0.00644l0.02313,0.00185l0.01729,-0.00133l0.02273,-0.01077l0.13346,-0.02669l0.05311,0.00252l0.05158,-0.01289h0.46711l0.08325,0.02081l0.08556,0.00658l0.02059,0.00686l0.03349,0.00838l0.00806,0.00429l0.00912,0.0003l0.16607,0.04745l0.04553,0.0091l0.05574,0.02641l0.00846,0.00212l0.03939,-0.01074l0.05882,0.03529l0.06654,0.01664l0.01042,0.01825l0.10316,0.03968l0.02854,0.00951l0.01911,0.01217l0.02236,0.00361l0.09342,0.04004l0.01279,0.00971l0.01567,0.00349l0.1796,0.0898l0.00405,0.00135l0.00495,0.00314l0.02494,0.01247l0.01541,0.01321l0.00431,0.00274l0.05624,0.01713l0.04915,0.02949l0.00112,0.00056l0.00405,0.00135l0.00495,0.00314l0.02494,0.01247l0.007,0.006l0.03303,0.00734l0.05339,0.02669l0.0182,0.0156l0.02285,0.00723l0.1658,0.10203l0.03281,0.00923l0.09342,0.05339l0.04662,0.04468l0.02135,0.00817l0.13346,0.09342l0.02607,0.03003l0.07197,0.04318l0.02669,0.02669l0.00935,0.01559l0.01492,0.01036l0.09342,0.10677l0.01618,0.03156l0.02625,0.02386l0.02669,0.04004l0.01134,0.03177l0.02196,0.02561l0.01183,0.02366l0.00825,0.01239l0.00516,0.01444l0.00145,0.0029l0.00068,0.00306l0.00932,0.02611l0.02989,0.03933l0.07389,0.17242l0.01968,0.03935l0.01275,0.05739l0.02766,0.05187l0.00838,0.03349l0.00686,0.02059l0.00422,0.05493l0.01952,0.05152l0.02669,0.22688l-0.00406,0.03153l0.00771,0.03083v0.17871l0.00332,0.00499l-0.00332,0.01497v0.01487l-0.02975,0.119l-0.02661,0.11974l-0.00665,0.0133l-0.00372,0.01487l-0.00833,0.00476l-0.00453,0.00527l-0.00411,0.0146l-0.05339,0.09342l-0.01486,0.01551l-0.001,0.01806l-0.08525,0.07307l-0.0116,0.01933l-0.02669,0.02669l-0.01622,0.00973l-0.03474,0.03625h-0.01808l-0.01631,0.01398l-0.01602,0.00801l-0.03737,0.03204l-0.02669,0.01335l-0.03729,0.00828l-0.00255,0.00153l-0.03008,0.01914l-0.04004,0.01335l-0.02087,0.0016l-0.01847,0.00986l-0.16016,0.04004h-0.02176l-0.01995,0.00868l-0.03876,0.00646l-0.04034,0.01344l-0.04838,0.00372l-0.04494,0.01831l-0.18685,0.02669l-0.03822,-0.00395l-0.03727,0.00932h-0.45377l-0.06376,-0.01594h-0.06572l-0.03048,-0.00762l-0.23026,-0.03635l-0.05538,-0.02352l-0.05962,-0.00813l-0.00731,-0.00293l-0.03006,-0.00429l-0.02596,-0.01057h-0.02802l-0.26693,-0.06673l-0.01847,-0.00986l-0.02087,-0.0016l-0.02059,-0.00686l-0.03349,-0.00838l-0.01847,-0.00986l-0.02087,-0.0016l-0.04004,-0.01335l-0.01435,-0.00912l-0.1308,-0.03568l-0.04637,-0.02602l-0.0519,-0.01154l-0.13346,-0.06673l-0.00631,-0.0054l-0.00805,-0.00205l-0.16638,-0.08959l-0.01946,-0.00973l-0.03737,-0.03204l-0.01602,-0.00801l-0.03401,-0.02915l-0.05134,-0.03081l-0.02002,-0.02002l-0.03337,-0.02002l-0.10677,-0.10677l-0.01977,-0.03295l-0.02982,-0.02423l-0.02894,-0.03859l-0.05835,-0.05001l-0.00148,-0.02659l-0.02836,-0.03309l-0.01335,-0.02669l-0.00349,-0.01567l-0.00971,-0.01279l-0.03285,-0.07666l-0.02366,-0.01351l-0.01664,-0.06654l-0.03529,-0.05882l0.00505,-0.01851l-0.0259,-0.06907l-0.00116,-0.01008l-0.00545,-0.00855l-0.01335,-0.04004l-0.00267,-0.0347l-0.02402,-0.07206l-0.00267,-0.0347l-0.02402,-0.07206l-0.00658,-0.08556l-0.01503,-0.06011l-0.00043,-0.00104l-0.00021,-0.00152l-0.00515,-0.02059v-0.01545l-0.00798,-0.05587l0.00395,-0.03822l-0.00932,-0.03727v-0.05339l0.01082,-0.04328l-0.00356,-0.04447l0.01335,-0.08008l0.01365,-0.03139l-0.00611,-0.0224l0.04793,-0.07988l0.0047,-0.01412l0.01289,-0.02025l0.03664,-0.08428l0.02178,-0.00805l0.00286,-0.00477l0.00201,-0.00803c-0.03221,-0.0687 -0.05019,-0.1454 -0.05019,-0.22629zM239.07533,178.88586l0.0346,0.09226l0.0063,0.00734l0.01335,0.02669l0.00349,0.01567l0.00971,0.01279l0.00662,0.01544l0.00986,0.00801l0.00892,0.0119l0.01164,0.00997l0.00027,0.0047l0.04322,0.04322l0.15523,0.08359l0.07895,0.03948l0.09581,0.02612l0.03655,0.02051l0.01849,0.00142l0.02059,0.00686l0.03349,0.00838l0.01847,0.00986l0.02087,0.0016l0.02059,0.00686l0.22031,0.05508l0.06616,0.00945l0.05931,0.02417l0.06346,0.00866l0.01101,0.0044l0.1943,0.03067l0.01605,0.00681h0.36991l0.10163,-0.01451l0.0344,-0.01147l0.04222,-0.00324l0.0091,-0.00395l-0.00755,-0.06418l-0.00545,-0.01087l-0.00194,-0.00873l-0.00183,-0.00732l-0.00943,-0.0124l-0.07651,-0.17852l-0.01706,-0.0199l-0.00719,-0.01437l-0.02731,-0.03122l-0.12781,-0.08947l-0.01528,-0.01759l-0.06355,-0.03632l-0.00747,-0.00716l-0.04749,-0.01504l-0.15255,-0.09388l-0.00341,-0.00113l-0.00495,-0.00314l-0.02494,-0.01247l-0.007,-0.006l-0.03303,-0.00734l-0.05339,-0.02669l-0.0159,-0.01363l-0.02002,-0.00609l-0.04745,-0.02847l-0.0234,-0.0052l-0.19951,-0.09976l-0.0586,-0.02511l-0.01898,-0.00632l-0.01048,-0.00667l-0.01234,-0.00151l-0.12111,-0.04658l-0.00231,0.00063l-0.00705,-0.00422l-0.04304,-0.01655l-0.02694,-0.01892l-0.04627,-0.00925l-0.01993,-0.00944l-0.02204,-0.00073l-0.17829,-0.05094l-0.03439,-0.0086h-0.15134l-0.06489,0.15411l0.00021,0.00079l-0.00183,0.00306l-0.00698,0.01657l-0.01643,0.0657l-0.0157,0.00897l-0.00723,0.02023l-0.00939,0.01409l0.00492,0.01478l0.00267,0.0347l0.02402,0.07206l0.00267,0.0347z"/></g></g></svg>